#!OML:ASF F:\VICON\USERDATA\INSTALL\Justin_Nancy\Justin_Nancy.ASF
:FULLY-SPECIFIED
:DEGREES
200
root 1.23806 17.6517 -24.2941 6.32917 -2.41946 3.26008
lowerback 8.07561 1.33957 -4.14808
upperback 0.901024 1.40486 -0.175156
thorax -3.69028 0.75607 1.99251
lowerneck -16.1954 -4.23539 -9.2818
upperneck 16.3783 -5.07011 7.88745
head 8.18913 -2.21758 3.56705
rclavicle 1.23743e-014 3.97569e-016
rhumerus -33.2854 -10.6082 -82.3926
rradius 36.6019
rwrist 2.78512
rhand -17.0762 12.9436
rfingers 7.12502
rthumb 9.16185 -16.8374
lclavicle 1.23743e-014 3.97569e-016
lhumerus -35.5594 15.9151 76.999
lradius 24.4547
lwrist -12.6552
lhand -11.2454 27.5314
lfingers 7.12502
lthumb 14.7841 56.9841
rfemur -17.1632 -0.630185 16.9969
rtibia 68.1365
rfoot 4.38144 -5.90952
rtoes 5.69186
lfemur -21.0793 -3.0369 -24.6024
ltibia 25.5724
lfoot -8.85287 -3.02572
ltoes 5.87635
201
root 1.25412 17.6502 -24.1465 6.31934 -2.53761 3.53447
lowerback 7.91403 1.32469 -4.22151
upperback 0.962075 1.38027 -0.385862
thorax -3.53139 0.739773 1.82183
lowerneck -16.4414 -4.31961 -9.05457
upperneck 16.44 -5.22353 7.87813
head 8.26113 -2.27128 3.50514
rclavicle -8.94531e-015 2.98177e-015
rhumerus -33.1776 -11.2243 -82.3708
rradius 36.8384
rwrist 3.19945
rhand -16.0542 12.3928
rfingers 7.12502
rthumb 10.1479 -17.3424
lclavicle -8.94531e-015 2.98177e-015
lhumerus -34.6485 15.5598 77.0917
lradius 24.468
lwrist -12.4914
lhand -11.1258 28.1524
lfingers 7.12502
lthumb 14.8993 57.5966
rfemur -18.754 -0.79553 16.6607
rtibia 68.9776
rfoot 3.15333 -5.85997
rtoes 6.71614
lfemur -20.4863 -3.04177 -25.0348
ltibia 25.5692
lfoot -9.38872 -2.73589
ltoes 5.75811
202
root 1.26899 17.64 -24.0039 6.21009 -2.52523 3.74955
lowerback 7.91644 1.29151 -4.29896
upperback 1.02638 1.32729 -0.487179
thorax -3.46188 0.711687 1.76693
lowerneck -16.8128 -4.41052 -9.16426
upperneck 16.6758 -5.33365 8.03095
head 8.4241 -2.30681 3.56065
rclavicle -6.90777e-015 -6.16232e-015
rhumerus -33.2466 -11.3799 -82.4215
rradius 37.0939
rwrist 2.39967
rhand -16.372 12.6427
rfingers 7.12502
rthumb 9.84123 -17.1073
lclavicle -6.90777e-015 -6.16232e-015
lhumerus -33.8103 15.2433 77.3008
lradius 24.6999
lwrist -12.5539
lhand -10.4484 30.1973
lfingers 7.12502
lthumb 15.5518 59.592
rfemur -20.1458 -1.06909 16.4475
rtibia 69.672
rfoot 1.82921 -5.88119
rtoes 6.65196
lfemur -19.8462 -3.0652 -25.396
ltibia 25.6381
lfoot -9.94374 -2.47747
ltoes 6.07839
203
root 1.27835 17.6246 -23.8704 6.07509 -2.4083 3.94739
lowerback 8.08577 1.15347 -4.56588
upperback 0.993518 1.11302 -0.418475
thorax -3.58352 0.61225 2.00873
lowerneck -17.3107 -4.38623 -9.42963
upperneck 17.2695 -5.23699 8.11088
head 8.71424 -2.25957 3.64828
rclavicle -1.92821e-014 4.96962e-015
rhumerus -33.3576 -11.1869 -82.3604
rradius 37.2285
rwrist 2.32379
rhand -17.1094 11.8262
rfingers 7.12502
rthumb 9.12978 -17.9562
lclavicle -1.92821e-014 4.96962e-015
lhumerus -33.3009 15.2861 77.4619
lradius 24.8967
lwrist -12.6753
lhand -10.1995 30.2933
lfingers 7.12502
lthumb 15.7915 59.6692
rfemur -21.4936 -1.40187 16.3356
rtibia 70.2165
rfoot 0.429379 -5.97195
rtoes 4.85478
lfemur -19.2856 -2.98222 -25.7201
ltibia 25.7918
lfoot -10.6802 -2.59074
ltoes 6.17222
204
root 1.29517 17.6147 -23.7311 5.99101 -2.34431 4.06414
lowerback 8.06067 0.985078 -4.67296
upperback 0.911163 0.882482 -0.327513
thorax -3.64222 0.502694 2.18905
lowerneck -16.867 -4.24193 -9.52311
upperneck 17.0766 -5.01747 7.99255
head 8.54754 -2.18437 3.65303
rclavicle -1.4064e-014 1.43125e-014
rhumerus -33.452 -10.8644 -82.198
rradius 37.2189
rwrist 2.3745
rhand -17.0618 10.8576
rfingers 7.12502
rthumb 9.17568 -18.9228
lclavicle -1.4064e-014 1.43125e-014
lhumerus -32.943 15.323 77.6294
lradius 25.0219
lwrist -12.3939
lhand -10.7597 30.3029
lfingers 7.12502
lthumb 15.252 59.7206
rfemur -22.8854 -1.63908 16.2861
rtibia 70.5698
rfoot -0.900532 -6.12049
rtoes 3.98661
lfemur -18.7696 -3.0664 -25.9742
ltibia 26.02
lfoot -11.5048 -2.51121
ltoes 6.02403
205
root 1.31334 17.5987 -23.5944 5.8925 -2.31106 4.15381
lowerback 8.09183 0.92569 -4.64035
upperback 0.806093 0.800355 -0.363056
thorax -3.76207 0.465511 2.14197
lowerneck -16.2353 -4.15655 -9.41994
upperneck 16.7559 -4.96223 7.97265
head 8.31818 -2.16703 3.63719
rclavicle -1.73937e-014 4.37326e-015
rhumerus -33.7187 -10.8931 -82.0774
rradius 37.3492
rwrist 2.27936
rhand -16.1983 11.3194
rfingers 7.12502
rthumb 10.0088 -18.4227
lclavicle -1.73937e-014 4.37326e-015
lhumerus -32.6589 14.8435 77.7866
lradius 25.4542
lwrist -11.8818
lhand -10.9608 31.0029
lfingers 7.12502
lthumb 15.0582 60.4353
rfemur -24.2291 -1.8357 16.2714
rtibia 70.7615
rfoot -2.19019 -6.25191
rtoes 4.45604
lfemur -18.2385 -3.07592 -26.2176
ltibia 26.2756
lfoot -12.3184 -2.51865
ltoes 5.00068
206
root 1.32442 17.5782 -23.4586 5.84444 -2.08171 4.35038
lowerback 8.27744 0.800414 -4.73806
upperback 0.698114 0.609239 -0.413348
thorax -3.96525 0.378111 2.16425
lowerneck -16.3771 -4.10717 -9.38689
upperneck 16.9472 -4.90158 7.97901
head 8.40109 -2.13289 3.64307
rclavicle -2.01766e-014 -3.97569e-015
rhumerus -33.9665 -10.8679 -82.0293
rradius 37.5048
rwrist 2.18686
rhand -15.8682 12.4438
rfingers 7.12502
rthumb 10.3273 -17.2826
lclavicle -2.01766e-014 -3.97569e-015
lhumerus -32.3245 14.259 78.0142
lradius 26.0671
lwrist -11.0589
lhand -10.9626 31.313
lfingers 7.12502
lthumb 15.0565 60.7454
rfemur -25.5541 -2.1908 16.1983
rtibia 70.7954
rfoot -3.09279 -6.2479
rtoes 3.71175
lfemur -17.8325 -3.08206 -26.5459
ltibia 26.5836
lfoot -13.1808 -2.74765
ltoes 3.7778
207
root 1.33254 17.5582 -23.3193 5.81164 -1.89527 4.61172
lowerback 8.41501 0.654106 -4.9347
upperback 0.619502 0.384446 -0.449226
thorax -4.1091 0.274465 2.26274
lowerneck -16.6634 -4.09097 -9.4208
upperneck 17.1697 -4.85265 7.95841
head 8.52283 -2.10834 3.64876
rclavicle -2.03754e-015 1.0138e-014
rhumerus -34.0362 -10.8206 -82.0193
rradius 37.4484
rwrist 2.21981
rhand -16.1935 12.428
rfingers 7.12502
rthumb 10.0135 -17.3138
lclavicle -2.03754e-015 1.0138e-014
lhumerus -31.8769 14.569 77.7891
lradius 26.1288
lwrist -11.5903
lhand -9.9623 28.585
lfingers 7.12502
lthumb 16.0199 57.9426
rfemur -26.9044 -2.46874 16.0793
rtibia 70.6924
rfoot -4.44847 -6.5044
rtoes 4.48601
lfemur -17.5026 -2.94394 -26.9492
ltibia 26.931
lfoot -13.7515 -2.75466
ltoes 3.72641
208
root 1.34454 17.5346 -23.1768 5.67886 -1.97227 4.7366
lowerback 8.41365 0.559135 -5.02683
upperback 0.696464 0.253965 -0.405623
thorax -4.0187 0.208437 2.37573
lowerneck -16.783 -4.05072 -9.57186
upperneck 17.073 -4.73611 7.93207
head 8.50372 -2.06338 3.67761
rclavicle -3.13086e-015 -1.70955e-014
rhumerus -33.9582 -10.5509 -81.9858
rradius 37.455
rwrist 2.263
rhand -15.8475 11.9673
rfingers 7.12502
rthumb 10.3473 -17.7582
lclavicle -3.13086e-015 -1.70955e-014
lhumerus -31.1074 14.3854 78.0888
lradius 25.7584
lwrist -9.79679
lhand -13.0859 26.0523
lfingers 7.12502
lthumb 13.0104 55.6265
rfemur -28.1489 -2.55108 16.0788
rtibia 70.4041
rfoot -5.93688 -6.6945
rtoes 4.37722
lfemur -17.0556 -2.85079 -27.217
ltibia 27.356
lfoot -13.9016 -1.93071
ltoes 5.04867
209
root 1.35834 17.512 -23.0338 5.55175 -2.37564 4.87561
lowerback 8.32991 0.616506 -5.10326
upperback 0.85704 0.330165 -0.481459
thorax -3.8103 0.239031 2.3316
lowerneck -17.1005 -4.07327 -9.54853
upperneck 16.9117 -4.74131 7.9609
head 8.50663 -2.0542 3.67848
rclavicle 9.93923e-015 1.21259e-014
rhumerus -33.724 -10.4409 -82.0579
rradius 37.3932
rwrist 2.18528
rhand -15.2582 12.0679
rfingers 7.12502
rthumb 10.9157 -17.6284
lclavicle 9.93923e-015 1.21259e-014
lhumerus -30.2001 14.1836 78.2131
lradius 25.2521
lwrist -8.27774
lhand -16.3227 21.3318
lfingers 7.12502
lthumb 9.88885 51.0795
rfemur -29.4325 -2.32483 16.0214
rtibia 69.9647
rfoot -6.30719 -6.75476
rtoes 3.44098
lfemur -16.614 -2.66308 -27.5305
ltibia 27.7804
lfoot -14.5382 -1.78585
ltoes 5.00137
210
root 1.37 17.4785 -22.8952 5.56663 -2.69821 4.96288
lowerback 8.32507 0.67853 -5.1623
upperback 0.818486 0.403891 -0.533681
thorax -3.85369 0.27774 2.30171
lowerneck -17.1948 -4.02933 -9.364
upperneck 16.7914 -4.69788 7.88282
head 8.47191 -2.02734 3.62428
rclavicle 1.88845e-014 -6.55989e-015
rhumerus -33.8013 -10.4518 -82.0301
rradius 37.4028
rwrist 2.36965
rhand -15.5603 12.8968
rfingers 7.12502
rthumb 10.6243 -16.8146
lclavicle 1.88845e-014 -6.55989e-015
lhumerus -29.4255 13.5896 78.5563
lradius 25.9462
lwrist -8.46178
lhand -14.8977 25.101
lfingers 7.12502
lthumb 11.2634 54.7786
rfemur -30.7994 -2.14517 16.0591
rtibia 69.3875
rfoot -7.061 -7.07239
rtoes 4.19527
lfemur -16.3561 -2.57716 -27.7679
ltibia 28.2336
lfoot -15.2568 -1.556
ltoes 4.85132
